<svg width="247" height="257" viewBox="0 0 247 257" fill="none" xmlns="http://www.w3.org/2000/svg">
<rect x="11" y="7" width="236" height="250" fill="#FA7560"/>
<g clip-path="url(#clip0_19475_88358)">
<rect width="239" height="249" fill="white"/>
<path d="M18.3611 26.8314H17.7223C17.7223 27.0905 17.8788 27.324 18.1185 27.4224C18.3582 27.5208 18.6336 27.4647 18.8156 27.2803L18.3611 26.8314ZM18.3611 22.9983H19V22.3595H18.3611V22.9983ZM22.6014 23.4473C22.8493 23.1962 22.8468 22.7917 22.5958 22.5438C22.3447 22.2959 21.9403 22.2984 21.6923 22.5494L22.1469 22.9983L22.6014 23.4473ZM29.1741 19.5912V20.23H30.4518V19.5912H29.813H29.1741ZM15.3595 20.8133L14.7274 20.9059H14.7274L15.3595 20.8133ZM17.5175 22.9714L17.6101 22.3393H17.6101L17.5175 22.9714ZM28.4177 12.2036L28.7077 11.6344V11.6344L28.4177 12.2036ZM29.5345 13.3203L30.1037 13.0303V13.0303L29.5345 13.3203ZM16.7278 12.2036L17.0178 12.7728L16.7278 12.2036ZM15.611 13.3203L16.1803 13.6103L15.611 13.3203ZM29.813 29.8127L29.4228 30.3185C29.6156 30.4673 29.8762 30.4934 30.0948 30.386C30.3134 30.2786 30.4518 30.0562 30.4518 29.8127H29.813ZM26.4058 27.1843L26.796 26.6785L26.6236 26.5454H26.4058V27.1843ZM29.813 27.1843V26.5454H29.1741V27.1843H29.813ZM22.3325 26.2541L22.9017 25.9641L22.3325 26.2541ZM23.077 26.9986L23.3671 26.4294L23.077 26.9986ZM23.077 19.7769L23.3671 20.3461L23.077 19.7769ZM22.3325 20.5213L22.9017 20.8114L22.3325 20.5213ZM31.4382 19.7769L31.1481 20.3461L31.4382 19.7769ZM32.1827 20.5213L31.6135 20.8114L32.1827 20.5213ZM19.4211 11.925V12.5639H25.7244V11.925V11.2862H19.4211V11.925ZM15.3325 19.9697H15.9714V16.0136H15.3325H14.6937V19.9697H15.3325ZM18.3611 26.8314H19V22.9983H18.3611H17.7223V26.8314H18.3611ZM22.1469 22.9983L21.6923 22.5494L17.9066 26.3825L18.3611 26.8314L18.8156 27.2803L22.6014 23.4473L22.1469 22.9983ZM29.813 16.0136H29.1741V19.5912H29.813H30.4518V16.0136H29.813ZM15.3325 19.9697H14.6937C14.6937 20.3867 14.692 20.6641 14.7274 20.9059L15.3595 20.8133L15.9916 20.7207C15.9731 20.5942 15.9714 20.4319 15.9714 19.9697H15.3325ZM18.3611 22.9983V22.3595C17.8989 22.3595 17.7367 22.3578 17.6101 22.3393L17.5175 22.9714L17.4249 23.6035C17.6668 23.6389 17.9441 23.6372 18.3611 23.6372V22.9983ZM15.3595 20.8133L14.7274 20.9059C14.9319 22.3023 16.0286 23.3989 17.4249 23.6035L17.5175 22.9714L17.6101 22.3393C16.7723 22.2165 16.1143 21.5586 15.9916 20.7207L15.3595 20.8133ZM25.7244 11.925V12.5639C26.4505 12.5639 26.9567 12.5644 27.3507 12.5966C27.7373 12.6282 27.9594 12.6871 28.1277 12.7728L28.4177 12.2036L28.7077 11.6344C28.3294 11.4416 27.9204 11.3612 27.4548 11.3231C26.9966 11.2857 26.4294 11.2862 25.7244 11.2862V11.925ZM29.813 16.0136H30.4518C30.4518 15.3086 30.4523 14.7414 30.4149 14.2833C30.3768 13.8176 30.2965 13.4087 30.1037 13.0303L29.5345 13.3203L28.9652 13.6103C29.051 13.7786 29.1099 14.0007 29.1414 14.3873C29.1736 14.7814 29.1741 15.2875 29.1741 16.0136H29.813ZM28.4177 12.2036L28.1277 12.7728C28.4883 12.9565 28.7815 13.2497 28.9652 13.6103L29.5345 13.3203L30.1037 13.0303C29.7974 12.4292 29.3088 11.9406 28.7077 11.6344L28.4177 12.2036ZM19.4211 11.925V11.2862C18.7161 11.2862 18.1489 11.2857 17.6907 11.3231C17.2251 11.3612 16.8161 11.4416 16.4377 11.6344L16.7278 12.2036L17.0178 12.7728C17.1861 12.6871 17.4082 12.6282 17.7948 12.5966C18.1888 12.5644 18.695 12.5639 19.4211 12.5639V11.925ZM15.3325 16.0136H15.9714C15.9714 15.2875 15.9719 14.7814 16.0041 14.3873C16.0356 14.0007 16.0945 13.7786 16.1803 13.6103L15.611 13.3203L15.0418 13.0303C14.849 13.4087 14.7687 13.8176 14.7306 14.2833C14.6932 14.7414 14.6937 15.3086 14.6937 16.0136H15.3325ZM16.7278 12.2036L16.4377 11.6344C15.8367 11.9406 15.3481 12.4292 15.0418 13.0303L15.611 13.3203L16.1803 13.6103C16.364 13.2497 16.6572 12.9565 17.0178 12.7728L16.7278 12.2036ZM29.6426 19.5912V18.9523H24.8726V19.5912V20.23H29.6426V19.5912ZM22.1469 22.3169H21.508V24.4586H22.1469H22.7857V22.3169H22.1469ZM24.8726 27.1843V27.8231H26.4058V27.1843V26.5454H24.8726V27.1843ZM26.4058 27.1843L26.0156 27.6901L29.4228 30.3185L29.813 29.8127L30.2032 29.3068L26.796 26.6785L26.4058 27.1843ZM32.3684 24.6289H33.0072V22.3169H32.3684H31.7295V24.6289H32.3684ZM29.813 29.8127H30.4518V27.1843H29.813H29.1741V29.8127H29.813ZM22.1469 24.4586H21.508C21.508 24.9251 21.5075 25.3134 21.5333 25.6295C21.5598 25.9531 21.6169 26.2569 21.7633 26.5441L22.3325 26.2541L22.9017 25.9641C22.8624 25.8869 22.8268 25.77 22.8068 25.5254C22.7862 25.2734 22.7857 24.9461 22.7857 24.4586H22.1469ZM24.8726 27.1843V26.5454C24.385 26.5454 24.0577 26.5449 23.8057 26.5244C23.5611 26.5044 23.4442 26.4687 23.3671 26.4294L23.077 26.9986L22.787 27.5678C23.0743 27.7142 23.3781 27.7714 23.7017 27.7978C24.0178 27.8236 24.4061 27.8231 24.8726 27.8231V27.1843ZM22.3325 26.2541L21.7633 26.5441C21.9879 26.9849 22.3462 27.3432 22.787 27.5678L23.077 26.9986L23.3671 26.4294C23.1667 26.3273 23.0038 26.1644 22.9017 25.9641L22.3325 26.2541ZM24.8726 19.5912V18.9523C24.4061 18.9523 24.0178 18.9518 23.7017 18.9777C23.3781 19.0041 23.0743 19.0613 22.787 19.2076L23.077 19.7769L23.3671 20.3461C23.4442 20.3068 23.5611 20.2711 23.8057 20.2511C24.0577 20.2305 24.385 20.23 24.8726 20.23V19.5912ZM22.1469 22.3169H22.7857C22.7857 21.8293 22.7862 21.502 22.8068 21.25C22.8268 21.0055 22.8624 20.8885 22.9017 20.8114L22.3325 20.5213L21.7633 20.2313C21.6169 20.5186 21.5598 20.8224 21.5333 21.146C21.5075 21.4621 21.508 21.8504 21.508 22.3169H22.1469ZM23.077 19.7769L22.787 19.2076C22.3462 19.4322 21.9879 19.7906 21.7633 20.2313L22.3325 20.5213L22.9017 20.8114C23.0038 20.611 23.1667 20.4481 23.3671 20.3461L23.077 19.7769ZM32.3684 24.6289H31.7295C31.7295 25.0345 31.7292 25.3068 31.7148 25.5176C31.7008 25.7226 31.6757 25.8224 31.6485 25.8882L32.2387 26.1326L32.8289 26.3771C32.9313 26.1298 32.9711 25.8746 32.9895 25.6045C33.0075 25.3402 33.0072 25.0171 33.0072 24.6289H32.3684ZM29.813 27.1843V27.8231C30.2011 27.8231 30.5242 27.8235 30.7886 27.8054C31.0587 27.787 31.3138 27.7473 31.5612 27.6448L31.3167 27.0546L31.0722 26.4644C31.0065 26.4916 30.9067 26.5167 30.7016 26.5307C30.4908 26.5451 30.2186 26.5454 29.813 26.5454V27.1843ZM32.2387 26.1326L31.6485 25.8882C31.5404 26.1491 31.3331 26.3563 31.0722 26.4644L31.3167 27.0546L31.5612 27.6448C32.1351 27.4071 32.5911 26.9511 32.8289 26.3771L32.2387 26.1326ZM29.6426 19.5912V20.23C30.1302 20.23 30.4575 20.2305 30.7095 20.2511C30.9541 20.2711 31.071 20.3068 31.1481 20.3461L31.4382 19.7769L31.7282 19.2076C31.4409 19.0613 31.1371 19.0041 30.8135 18.9777C30.4974 18.9518 30.1091 18.9523 29.6426 18.9523V19.5912ZM32.3684 22.3169H33.0072C33.0072 21.8504 33.0077 21.4621 32.9819 21.146C32.9554 20.8224 32.8983 20.5186 32.7519 20.2313L32.1827 20.5213L31.6135 20.8114C31.6528 20.8885 31.6884 21.0055 31.7084 21.25C31.729 21.502 31.7295 21.8293 31.7295 22.3169H32.3684ZM31.4382 19.7769L31.1481 20.3461C31.3485 20.4481 31.5114 20.611 31.6135 20.8114L32.1827 20.5213L32.7519 20.2313C32.5273 19.7906 32.169 19.4322 31.7282 19.2076L31.4382 19.7769Z" fill="#801A10"/>
<path d="M221.857 16.575L214.121 24.3107M214.121 16.575L221.857 24.3107" stroke="#801A10" stroke-width="1.38139" stroke-linecap="square"/>
<line y1="43.8387" x2="239.353" y2="43.8387" stroke="#FA4028" stroke-width="0.909051"/>
<path fill-rule="evenodd" clip-rule="evenodd" d="M18.7391 59.626C23.4434 59.626 27.257 63.4396 27.257 68.1439C27.257 72.8482 23.4434 76.6618 18.7391 76.6618C14.0348 76.6618 10.2212 72.8482 10.2212 68.1439C10.2212 63.4396 14.0348 59.626 18.7391 59.626ZM16.8866 65.6318H16.8966V66.0893C17.1628 66.0041 17.3443 65.9825 17.4614 66.0144C17.5785 66.0464 17.6533 66.1535 17.6852 66.3239C17.7171 66.4942 17.7276 66.7605 17.7276 67.1116V70.1245C17.7276 70.6143 17.7595 71.03 17.8341 71.3814C17.898 71.7219 17.983 72.0201 18.0895 72.2756C18.1959 72.531 18.281 72.7438 18.3448 72.946C18.4087 73.1377 18.4513 73.3403 18.4513 73.5533C18.4513 73.7661 18.4085 73.9153 18.334 74.0324C18.2595 74.1493 18.1425 74.2129 17.983 74.2129C17.8765 74.2129 17.7913 74.1706 17.7168 74.0748C17.6423 73.9896 17.5461 73.8403 17.429 73.6273C17.3332 73.3933 17.2266 73.234 17.1096 73.1382C16.9924 73.0424 16.8327 72.9885 16.6304 72.9885C16.3964 72.9885 16.2048 73.0632 16.0664 73.2014C15.928 73.3398 15.8643 73.5318 15.8643 73.7554C15.8643 73.979 15.9279 74.2133 16.0556 74.3942C16.1834 74.5753 16.3754 74.7245 16.6096 74.831C16.8545 74.9374 17.1315 74.9907 17.4614 74.9907C17.8553 74.9906 18.2389 74.8843 18.5902 74.6821C18.9415 74.4691 19.2291 74.1278 19.442 73.6381C19.6549 73.1484 19.7614 72.4987 19.7614 71.6683V64.4173L16.8866 65.6318ZM18.7499 61.298C18.3879 61.298 18.1001 61.4154 17.8765 61.639C17.653 61.8732 17.5355 62.1501 17.5355 62.4908C17.5355 62.8314 17.653 63.1082 17.8765 63.3318C18.1001 63.5553 18.388 63.672 18.7499 63.672C19.1118 63.6719 19.3888 63.5659 19.6017 63.3318C19.8145 63.1083 19.9103 62.8313 19.9103 62.4908C19.9103 62.1503 19.8038 61.8732 19.6017 61.639C19.3888 61.4155 19.1118 61.298 18.7499 61.298Z" fill="#FA4028"/>
<path d="M38.0662 71.3346C36.4325 71.3346 35.1207 70.5118 34.5841 69.1285C34.5483 69.0331 34.5125 68.9496 34.4887 68.8423L35.4784 68.568C35.5023 68.6634 35.5381 68.7469 35.5738 68.8423C36.0032 69.8559 36.981 70.3925 38.1139 70.3925C39.4614 70.3925 40.1173 69.7128 40.1173 68.8661C40.1173 68.1745 39.6522 67.7571 38.4955 67.4589L37.0764 67.0893C35.6573 66.7077 34.9418 65.9922 34.9418 64.907C34.9418 63.5833 36.1701 62.6174 37.9112 62.6174C39.3541 62.6174 40.4989 63.3925 41.0117 64.3704C41.0713 64.4658 41.119 64.5612 41.1548 64.6566L40.1292 64.9547C40.1054 64.8712 40.0696 64.7997 40.0219 64.7281C39.6642 64.0364 38.9009 63.5475 37.8873 63.5356C36.7664 63.5356 36.027 64.0364 36.027 64.7997C36.027 65.384 36.3728 65.8252 37.4342 66.0876L38.9367 66.4572C40.4393 66.8269 41.2621 67.5901 41.2621 68.7826C41.2621 70.2017 40.0219 71.3346 38.0662 71.3346ZM44.595 71.2273C43.963 71.2273 43.5456 71.0365 43.319 70.6429C43.1998 70.4402 43.1521 70.1779 43.1521 69.8678V66.2068H42.0192V65.4317H43.1521V63.3329H44.1895V65.4317H45.6086V66.2068H44.1895V69.6174C44.1895 69.832 44.2253 69.9871 44.2849 70.0944C44.3923 70.2852 44.5831 70.3567 44.8454 70.3567C45.1555 70.3567 45.5013 70.2852 45.704 70.1898V71.0365C45.3343 71.1676 44.9527 71.2273 44.595 71.2273ZM48.474 71.3227C47.5081 71.3227 46.6972 70.7383 46.6972 69.6889C46.6972 68.8303 47.2099 68.1506 48.6767 67.8644L50.3224 67.5305V67.2324C50.3224 66.5646 50.0243 66.0637 49.1537 66.0637C48.3905 66.0637 47.9731 66.4215 47.8539 66.9581H46.7806C47.0549 65.9445 47.9374 65.2647 49.2253 65.2647C50.5728 65.2647 51.3599 66.0041 51.3599 67.1608V69.8201C51.3599 70.2613 51.5268 70.4641 51.8726 70.4641C51.9919 70.4641 52.0634 70.4402 52.1827 70.3925V71.1319C52.0277 71.2034 51.8249 71.275 51.5507 71.275C50.8709 71.275 50.4536 70.8814 50.3582 70.1779C49.8931 70.9411 49.2372 71.3227 48.474 71.3227ZM47.7346 69.6293C47.7346 70.2613 48.2236 70.5118 48.796 70.5118C49.5473 70.5118 50.3343 69.9155 50.3343 69.0569V68.1625L49.0822 68.4487C48.0685 68.6872 47.7346 69.1285 47.7346 69.6293ZM53.3796 71.1438V65.4317H54.3932V67.1131C54.9537 65.9802 55.8123 65.4436 56.6232 65.3601V66.4572C55.7169 66.4453 54.4171 67.125 54.4171 68.2937V71.1438H53.3796ZM59.7343 71.2273C59.1022 71.2273 58.6848 71.0365 58.4583 70.6429C58.339 70.4402 58.2913 70.1779 58.2913 69.8678V66.2068H57.1584V65.4317H58.2913V63.3329H59.3288V65.4317H60.7479V66.2068H59.3288V69.6174C59.3288 69.832 59.3646 69.9871 59.4242 70.0944C59.5315 70.2852 59.7223 70.3567 59.9847 70.3567C60.2947 70.3567 60.6406 70.2852 60.8433 70.1898V71.0365C60.4736 71.1676 60.092 71.2273 59.7343 71.2273ZM62.2419 71.1438V65.4317H63.2794V71.1438H62.2419ZM62.23 64.2153V62.7962H63.2913V64.2153H62.23ZM65.2581 71.1438V65.4317H66.2717V66.5526C66.6056 65.7537 67.2138 65.2886 68.0963 65.2886C69.3126 65.2886 70.0162 66.1472 70.0162 67.4232V71.1438H68.9787V67.5543C68.9787 66.6838 68.609 66.1472 67.7624 66.1472C66.8203 66.1472 66.2956 66.8269 66.2956 67.9956V71.1438H65.2581ZM74.0539 73.1472C72.9807 73.1472 72.0625 72.7298 71.6332 72.229L72.2413 71.5493C72.7303 72.062 73.2669 72.3005 73.9824 72.3005C75.0795 72.3005 75.7354 71.8474 75.7354 70.8695V69.677C75.4134 70.4879 74.7098 71.0245 73.8631 71.0245C72.4202 71.0245 71.502 69.8201 71.502 68.1864C71.502 66.5646 72.4918 65.3005 73.9228 65.3005C74.7933 65.3005 75.4492 65.8252 75.7473 66.6242V65.4317H76.7729V70.8934C76.7729 72.2767 75.6161 73.1472 74.0539 73.1472ZM72.5633 68.1864C72.5633 69.367 73.1238 70.1898 74.1255 70.1898C75.1272 70.1898 75.7473 69.3908 75.7473 68.1864C75.7473 66.9342 75.163 66.1472 74.1732 66.1472C73.1476 66.1472 72.5633 66.9819 72.5633 68.1864ZM82.066 71.1438V62.7962H83.1631V71.1438H82.066ZM91.4296 71.7162L90.7499 70.7503C90.1894 71.1199 89.5097 71.3227 88.7703 71.3227C86.5404 71.3227 84.9543 69.4624 84.9543 66.97C84.9543 64.4896 86.5404 62.6174 88.7703 62.6174C91.0003 62.6174 92.6102 64.4777 92.6102 66.97C92.6102 68.2341 92.1928 69.3312 91.4893 70.1182L92.6102 71.7162H91.4296ZM86.1349 66.97C86.1349 68.9973 87.1485 70.3687 88.7823 70.3687C89.3308 70.3687 89.7959 70.2136 90.1894 69.9394L88.2814 67.1966H89.462L90.8692 69.2119C91.2269 68.6395 91.4296 67.8644 91.4296 66.97C91.4296 64.9428 90.416 63.5714 88.7823 63.5714C87.1485 63.5714 86.1349 64.9428 86.1349 66.97ZM96.2757 71.1438L99.6863 62.7962H100.712L104.099 71.1438H102.918L102 68.7349H98.3626L97.4205 71.1438H96.2757ZM98.7084 67.8763H101.666L100.187 64.0484L98.7084 67.8763ZM107.314 73.1472C106.24 73.1472 105.322 72.7298 104.893 72.229L105.501 71.5493C105.99 72.062 106.527 72.3005 107.242 72.3005C108.339 72.3005 108.995 71.8474 108.995 70.8695V69.677C108.673 70.4879 107.97 71.0245 107.123 71.0245C105.68 71.0245 104.762 69.8201 104.762 68.1864C104.762 66.5646 105.752 65.3005 107.183 65.3005C108.053 65.3005 108.709 65.8252 109.007 66.6242V65.4317H110.033V70.8934C110.033 72.2767 108.876 73.1472 107.314 73.1472ZM105.823 68.1864C105.823 69.367 106.384 70.1898 107.385 70.1898C108.387 70.1898 109.007 69.3908 109.007 68.1864C109.007 66.9342 108.423 66.1472 107.433 66.1472C106.407 66.1472 105.823 66.9819 105.823 68.1864ZM114.341 71.3346C112.707 71.3346 111.574 70.0586 111.574 68.3056C111.574 66.5526 112.707 65.2647 114.329 65.2647C116.034 65.2647 116.929 66.7196 116.929 68.2222V68.401H112.647C112.671 69.6889 113.327 70.476 114.353 70.476C115.044 70.476 115.569 70.1898 115.891 69.5578C115.927 69.4862 115.951 69.4147 115.986 69.3312L116.869 69.5578C116.845 69.6293 116.809 69.7009 116.774 69.7724C116.285 70.7741 115.45 71.3346 114.341 71.3346ZM112.683 67.6736H115.903C115.796 66.8269 115.331 66.0756 114.329 66.0756C113.387 66.0756 112.814 66.6957 112.683 67.6736ZM118.455 71.1438V65.4317H119.469V66.5526C119.803 65.7537 120.411 65.2886 121.293 65.2886C122.51 65.2886 123.213 66.1472 123.213 67.4232V71.1438H122.176V67.5543C122.176 66.6838 121.806 66.1472 120.959 66.1472C120.017 66.1472 119.493 66.8269 119.493 67.9956V71.1438H118.455ZM126.906 71.2273C126.274 71.2273 125.857 71.0365 125.63 70.6429C125.511 70.4402 125.463 70.1779 125.463 69.8678V66.2068H124.33V65.4317H125.463V63.3329H126.501V65.4317H127.92V66.2068H126.501V69.6174C126.501 69.832 126.536 69.9871 126.596 70.0944C126.703 70.2852 126.894 70.3567 127.156 70.3567C127.466 70.3567 127.812 70.2852 128.015 70.1898V71.0365C127.645 71.1676 127.264 71.2273 126.906 71.2273ZM129.259 71.1438V69.6055H130.523V71.1438H129.259ZM132.168 71.1438V69.6055H133.432V71.1438H132.168ZM135.078 71.1438V69.6055H136.342V71.1438H135.078Z" fill="#410D07"/>
<rect x="9.7953" y="86.4574" width="219.762" height="31.5163" stroke="#FA4028" stroke-width="0.851792"/>
<rect width="218.91" height="30.6645" transform="translate(10.2212 86.8833)" fill="#FFF7F5"/>
<rect x="15.332" y="91.9941" width="20.443" height="20.443" rx="10.2215" fill="#FA7560"/>
<g clip-path="url(#clip1_19475_88358)">
<path d="M25.5535 97.3711V98.6133M25.5535 105.197V107.184M22.4481 102.216H20.709M30.1497 102.216H29.4044M28.7619 105.424L28.4106 105.073M28.8649 98.9441L28.1622 99.6468M22.0364 105.733L23.4418 104.327M22.1393 98.8412L23.1934 99.8952" stroke="#FFFDFC" stroke-width="1.06474" stroke-linecap="square"/>
</g>
<path d="M49.5639 105.147C47.7342 105.137 46.4668 103.635 46.4668 101.468C46.4668 99.2394 47.8876 97.6858 49.9421 97.6858C51.2709 97.6858 52.2419 98.2377 52.8245 99.1474C52.9165 99.2803 52.9676 99.4132 53.029 99.5563L51.69 100.026C51.6491 99.9243 51.598 99.8323 51.5469 99.7403C51.2198 99.1883 50.678 98.8101 49.9421 98.8101C48.6746 98.8101 47.9284 99.8118 47.9284 101.437C47.9284 102.981 48.6542 104.023 49.8603 104.023C50.7905 104.023 51.6593 103.481 51.6593 102.071V102.04H49.891V100.987H53.0085V104.994H52.0682L51.9557 103.747C51.4549 104.728 50.6678 105.158 49.5639 105.147ZM55.7671 105.147C54.8165 105.147 54.1317 104.606 54.1317 103.665C54.1317 102.827 54.6632 102.316 55.8182 102.091L57.239 101.836V101.672C57.239 101.151 57.0244 100.793 56.4009 100.793C55.8694 100.793 55.5627 101.069 55.4912 101.447H54.2032C54.4281 100.538 55.2356 99.8936 56.5031 99.8936C57.8319 99.8936 58.5269 100.507 58.5269 101.611V103.706C58.5269 104.023 58.6496 104.156 58.9051 104.156C58.9869 104.156 59.0482 104.146 59.1402 104.105V104.974C58.9256 105.055 58.7109 105.107 58.4452 105.107C57.8114 105.107 57.4332 104.81 57.3004 104.289C56.9222 104.861 56.4111 105.147 55.7671 105.147ZM55.3992 103.594C55.3992 104.023 55.716 104.238 56.1556 104.238C56.7075 104.238 57.2493 103.87 57.2493 103.226V102.551L56.2782 102.766C55.6649 102.909 55.3992 103.175 55.3992 103.594ZM61.9598 105.086C61.3057 105.086 60.8457 104.892 60.6106 104.504C60.488 104.299 60.4164 104.033 60.4164 103.706V100.926H59.4862V100.026H60.4164V98.2991H61.7452V100.026H62.9718V100.926H61.7452V103.369C61.7452 103.563 61.7656 103.716 61.8372 103.819C61.9394 103.992 62.1234 104.054 62.3687 104.054C62.6242 104.054 62.89 104.003 63.0535 103.921V104.892C62.6651 105.035 62.3687 105.086 61.9598 105.086ZM64.1108 104.994V97.8391H65.4396V100.875C65.7667 100.241 66.288 99.9141 66.9729 99.9141C68.0154 99.9141 68.6594 100.65 68.6594 101.774V104.994H67.3306V101.948C67.3306 101.325 67.0648 100.936 66.4516 100.936C65.7872 100.936 65.4396 101.406 65.4396 102.193V104.994H64.1108ZM72.2577 105.178C70.7654 105.178 69.7228 104.105 69.7228 102.541C69.7228 100.977 70.7654 99.8936 72.227 99.8936C73.7603 99.8936 74.6189 101.079 74.6189 102.49V102.745H71.0618C71.0924 103.645 71.5728 104.176 72.2986 104.176C72.7585 104.176 73.1572 103.952 73.3718 103.532C73.4025 103.471 73.4434 103.4 73.4638 103.328L74.5677 103.563C74.5473 103.624 74.5166 103.686 74.486 103.757C74.0669 104.677 73.2696 105.178 72.2577 105.178ZM71.0924 101.938H73.3412C73.2696 101.325 72.9323 100.834 72.2577 100.834C71.6137 100.834 71.1947 101.243 71.0924 101.938ZM75.7298 104.994V100.026H77.0279V101.458C77.4777 100.394 78.0399 99.9958 78.8985 99.9447V101.233C77.9377 101.202 77.0586 101.703 77.0586 102.674V104.994H75.7298ZM79.8623 104.994V100.026H81.1911V104.994H79.8623ZM79.8521 99.219V97.8391H81.2013V99.219H79.8521ZM82.6473 104.994V100.026H83.9454V100.936C84.2725 100.262 84.804 99.9141 85.5093 99.9141C86.5519 99.9141 87.1959 100.65 87.1959 101.774V104.994H85.8671V101.948C85.8671 101.325 85.6013 100.936 84.988 100.936C84.3236 100.936 83.9761 101.406 83.9761 102.193V104.994H82.6473ZM90.6408 106.773C89.6084 106.773 88.7294 106.374 88.3205 105.873L89.0463 105.076C89.3836 105.515 89.8844 105.771 90.5284 105.771C91.3665 105.771 91.847 105.352 91.847 104.555V103.706C91.571 104.412 90.9883 104.81 90.2933 104.81C89.0667 104.81 88.2694 103.839 88.2694 102.388C88.2694 100.998 89.1178 99.9141 90.3444 99.9141C91.0701 99.9141 91.6323 100.343 91.8674 101.038V100.026H93.1553V104.667C93.1553 106.027 91.9696 106.773 90.6408 106.773ZM89.5982 102.388C89.5982 103.226 90.048 103.849 90.7124 103.849C91.4074 103.849 91.8674 103.256 91.8674 102.388C91.8674 101.478 91.4279 100.906 90.7328 100.906C90.0582 100.906 89.5982 101.519 89.5982 102.388ZM97.3036 104.994V97.8391H100.309C101.903 97.8391 102.874 98.5342 102.874 99.6687C102.874 100.456 102.333 101.018 101.474 101.263C102.629 101.427 103.181 102.04 103.181 102.97C103.181 104.166 102.149 104.994 100.503 104.994H97.3036ZM98.6529 103.941H100.36C101.208 103.941 101.75 103.563 101.75 102.848C101.75 102.173 101.341 101.764 100.38 101.764H98.6529V103.941ZM98.6529 100.773H100.268C101.116 100.773 101.535 100.384 101.535 99.8118C101.535 99.219 101.137 98.8919 100.278 98.8919H98.6529V100.773ZM104.338 104.994V100.026H105.636V101.458C106.086 100.394 106.648 99.9958 107.507 99.9447V101.233C106.546 101.202 105.667 101.703 105.667 102.674V104.994H104.338ZM109.66 105.147C108.709 105.147 108.024 104.606 108.024 103.665C108.024 102.827 108.556 102.316 109.711 102.091L111.131 101.836V101.672C111.131 101.151 110.917 100.793 110.293 100.793C109.762 100.793 109.455 101.069 109.384 101.447H108.096C108.321 100.538 109.128 99.8936 110.396 99.8936C111.724 99.8936 112.419 100.507 112.419 101.611V103.706C112.419 104.023 112.542 104.156 112.798 104.156C112.879 104.156 112.941 104.146 113.033 104.105V104.974C112.818 105.055 112.603 105.107 112.338 105.107C111.704 105.107 111.326 104.81 111.193 104.289C110.815 104.861 110.304 105.147 109.66 105.147ZM109.292 103.594C109.292 104.023 109.608 104.238 110.048 104.238C110.6 104.238 111.142 103.87 111.142 103.226V102.551L110.171 102.766C109.557 102.909 109.292 103.175 109.292 103.594ZM113.981 104.994V100.026H115.279V100.936C115.606 100.262 116.137 99.9141 116.843 99.9141C117.885 99.9141 118.529 100.65 118.529 101.774V104.994H117.2V101.948C117.2 101.325 116.935 100.936 116.321 100.936C115.657 100.936 115.309 101.406 115.309 102.193V104.994H113.981ZM121.678 105.178C120.431 105.178 119.603 104.064 119.603 102.551C119.603 101.049 120.482 99.8936 121.749 99.8936C122.455 99.8936 123.006 100.333 123.262 101.008V97.8391H124.591V104.994H123.293V103.972C123.027 104.677 122.424 105.178 121.678 105.178ZM120.972 102.551C120.972 103.563 121.391 104.166 122.097 104.166C122.822 104.166 123.272 103.553 123.272 102.551C123.272 101.529 122.843 100.926 122.127 100.926C121.402 100.926 120.972 101.549 120.972 102.551ZM131.629 105.147C129.708 105.147 128.369 103.686 128.369 101.468C128.369 99.219 129.728 97.6858 131.65 97.6858C133.081 97.6858 134.195 98.4422 134.685 99.6994C134.747 99.8221 134.777 99.9549 134.818 100.088L133.408 100.333C133.387 100.21 133.346 100.078 133.295 99.9652C132.999 99.219 132.478 98.8101 131.67 98.8101C130.484 98.8101 129.83 99.8732 129.83 101.427C129.83 103.001 130.505 104.023 131.67 104.023C132.488 104.023 133.05 103.543 133.295 102.848C133.346 102.725 133.387 102.592 133.418 102.459L134.757 102.715C134.726 102.878 134.665 103.042 134.604 103.195C134.062 104.483 133.05 105.147 131.629 105.147ZM138.099 105.178C136.637 105.178 135.553 104.064 135.553 102.531C135.553 101.018 136.637 99.8936 138.099 99.8936C139.56 99.8936 140.613 101.008 140.623 102.531C140.623 104.064 139.56 105.178 138.099 105.178ZM136.933 102.531C136.933 103.584 137.383 104.187 138.099 104.187C138.814 104.187 139.243 103.584 139.243 102.531C139.243 101.509 138.814 100.895 138.099 100.895C137.383 100.895 136.933 101.509 136.933 102.531ZM141.73 104.994V100.026H143.028V100.936C143.356 100.262 143.887 99.9141 144.592 99.9141C145.635 99.9141 146.279 100.65 146.279 101.774V104.994H144.95V101.948C144.95 101.325 144.684 100.936 144.071 100.936C143.407 100.936 143.059 101.406 143.059 102.193V104.994H141.73ZM149.601 105.086C148.947 105.086 148.487 104.892 148.252 104.504C148.129 104.299 148.058 104.033 148.058 103.706V100.926H147.128V100.026H148.058V98.2991H149.387V100.026H150.613V100.926H149.387V103.369C149.387 103.563 149.407 103.716 149.479 103.819C149.581 103.992 149.765 104.054 150.01 104.054C150.266 104.054 150.531 104.003 150.695 103.921V104.892C150.307 105.035 150.01 105.086 149.601 105.086ZM153.88 105.178C152.388 105.178 151.345 104.105 151.345 102.541C151.345 100.977 152.388 99.8936 153.849 99.8936C155.383 99.8936 156.241 101.079 156.241 102.49V102.745H152.684C152.715 103.645 153.195 104.176 153.921 104.176C154.381 104.176 154.779 103.952 154.994 103.532C155.025 103.471 155.066 103.4 155.086 103.328L156.19 103.563C156.17 103.624 156.139 103.686 156.108 103.757C155.689 104.677 154.892 105.178 153.88 105.178ZM152.715 101.938H154.963C154.892 101.325 154.555 100.834 153.88 100.834C153.236 100.834 152.817 101.243 152.715 101.938ZM156.528 104.994L158.287 102.449L156.6 100.026H158.103L159.104 101.621L160.086 100.026H161.527L159.891 102.408L161.69 104.994H160.178L159.063 103.256L157.949 104.994H156.528ZM164.384 105.086C163.73 105.086 163.27 104.892 163.035 104.504C162.913 104.299 162.841 104.033 162.841 103.706V100.926H161.911V100.026H162.841V98.2991H164.17V100.026H165.396V100.926H164.17V103.369C164.17 103.563 164.19 103.716 164.262 103.819C164.364 103.992 164.548 104.054 164.793 104.054C165.049 104.054 165.315 104.003 165.478 103.921V104.892C165.09 105.035 164.793 105.086 164.384 105.086Z" fill="#801A10"/>
<path d="M210.818 100.725L213.8 103.706L216.781 100.725" stroke="#FA4028" stroke-width="1.06474" stroke-linecap="square"/>
<rect x="9.7953" y="125.64" width="219.762" height="31.5163" rx="3.83306" stroke="black" stroke-opacity="0.08" stroke-width="0.851792"/>
<rect x="9.7953" y="125.64" width="219.762" height="31.5163" stroke="#FA4028" stroke-width="0.851792"/>
<rect x="15.332" y="131.177" width="20.443" height="20.443" rx="10.2215" fill="#FFE8E2"/>
<g clip-path="url(#clip2_19475_88358)">
<path d="M25.5535 136.553V137.796M25.5535 144.379V146.367M22.4481 141.398H20.709M30.1497 141.398H29.4044M28.7619 144.606L28.4106 144.255M28.8649 138.126L28.1622 138.829M22.0364 144.915L23.4418 143.51M22.1393 138.024L23.1934 139.078" stroke="#FA4028" stroke-width="1.06474" stroke-linecap="square"/>
</g>
<path d="M49.7274 144.33C47.8058 144.33 46.4668 142.868 46.4668 140.65C46.4668 138.401 47.8262 136.868 49.7479 136.868C51.1789 136.868 52.293 137.625 52.7837 138.882C52.845 139.004 52.8757 139.137 52.9165 139.27L51.506 139.516C51.4855 139.393 51.4446 139.26 51.3935 139.148C51.0971 138.401 50.5758 137.993 49.7683 137.993C48.5826 137.993 47.9284 139.056 47.9284 140.609C47.9284 142.183 48.6031 143.205 49.7683 143.205C50.586 143.205 51.1482 142.725 51.3935 142.03C51.4446 141.907 51.4855 141.774 51.5162 141.642L52.8552 141.897C52.8245 142.061 52.7632 142.224 52.7019 142.378C52.1601 143.665 51.1482 144.33 49.7274 144.33ZM53.9892 144.177V139.209H55.2873V140.64C55.737 139.577 56.2992 139.178 57.1578 139.127V140.415C56.197 140.384 55.318 140.885 55.318 141.856V144.177H53.9892ZM60.1596 144.361C58.6672 144.361 57.6247 143.287 57.6247 141.723C57.6247 140.159 58.6672 139.076 60.1289 139.076C61.6621 139.076 62.5208 140.262 62.5208 141.672V141.928H58.9637C58.9943 142.827 59.4747 143.359 60.2005 143.359C60.6604 143.359 61.0591 143.134 61.2737 142.715C61.3044 142.654 61.3453 142.582 61.3657 142.51L62.4696 142.746C62.4492 142.807 62.4185 142.868 62.3879 142.94C61.9688 143.86 61.1715 144.361 60.1596 144.361ZM58.9943 141.12H61.2431C61.1715 140.507 60.8342 140.016 60.1596 140.016C59.5156 140.016 59.0966 140.425 58.9943 141.12ZM64.9605 144.33C64.0099 144.33 63.3251 143.788 63.3251 142.848C63.3251 142.01 63.8566 141.498 65.0116 141.274L66.4324 141.018V140.855C66.4324 140.333 66.2177 139.975 65.5942 139.975C65.0627 139.975 64.7561 140.251 64.6845 140.63H63.3966C63.6215 139.72 64.429 139.076 65.6964 139.076C67.0252 139.076 67.7203 139.689 67.7203 140.793V142.889C67.7203 143.205 67.843 143.338 68.0985 143.338C68.1803 143.338 68.2416 143.328 68.3336 143.287V144.156C68.1189 144.238 67.9043 144.289 67.6385 144.289C67.0048 144.289 66.6266 143.993 66.4937 143.471C66.1155 144.044 65.6045 144.33 64.9605 144.33ZM64.5925 142.776C64.5925 143.205 64.9094 143.42 65.3489 143.42C65.9009 143.42 66.4426 143.052 66.4426 142.408V141.734L65.4716 141.948C64.8583 142.091 64.5925 142.357 64.5925 142.776ZM71.1532 144.269C70.499 144.269 70.0391 144.074 69.804 143.686C69.6813 143.481 69.6098 143.216 69.6098 142.889V140.108H68.6796V139.209H69.6098V137.481H70.9386V139.209H72.1651V140.108H70.9386V142.551C70.9386 142.746 70.959 142.899 71.0306 143.001C71.1328 143.175 71.3168 143.236 71.5621 143.236C71.8176 143.236 72.0834 143.185 72.2469 143.103V144.074C71.8585 144.217 71.5621 144.269 71.1532 144.269ZM73.3042 144.177V139.209H74.633V144.177H73.3042ZM73.294 138.401V137.021H74.6432V138.401H73.294ZM76.0892 144.177V139.209H77.3873V140.119C77.7144 139.444 78.2459 139.096 78.9512 139.096C79.9938 139.096 80.6377 139.832 80.6377 140.957V144.177H79.3089V141.131C79.3089 140.507 79.0432 140.119 78.4299 140.119C77.7655 140.119 77.4179 140.589 77.4179 141.376V144.177H76.0892ZM84.0827 145.955C83.0503 145.955 82.1713 145.556 81.7624 145.056L82.4881 144.258C82.8254 144.698 83.3263 144.953 83.9703 144.953C84.8084 144.953 85.2888 144.534 85.2888 143.737V142.889C85.0128 143.594 84.4302 143.993 83.7352 143.993C82.5086 143.993 81.7113 143.021 81.7113 141.57C81.7113 140.18 82.5597 139.096 83.7863 139.096C84.512 139.096 85.0742 139.526 85.3093 140.221V139.209H86.5972V143.849C86.5972 145.209 85.4115 145.955 84.0827 145.955ZM83.0401 141.57C83.0401 142.408 83.4898 143.032 84.1542 143.032C84.8493 143.032 85.3093 142.439 85.3093 141.57C85.3093 140.66 84.8697 140.088 84.1747 140.088C83.5001 140.088 83.0401 140.701 83.0401 141.57ZM90.7455 144.177V137.021H93.7506C95.3452 137.021 96.3162 137.717 96.3162 138.851C96.3162 139.638 95.7745 140.2 94.9159 140.446C96.0709 140.609 96.6229 141.223 96.6229 142.153C96.6229 143.349 95.5905 144.177 93.9448 144.177H90.7455ZM92.0947 143.124H93.8017C94.6501 143.124 95.1919 142.746 95.1919 142.03C95.1919 141.355 94.783 140.947 93.8222 140.947H92.0947V143.124ZM92.0947 139.955H93.7097C94.5581 139.955 94.9772 139.567 94.9772 138.994C94.9772 138.401 94.5786 138.074 93.72 138.074H92.0947V139.955ZM97.7799 144.177V139.209H99.078V140.64C99.5278 139.577 100.09 139.178 100.949 139.127V140.415C99.9877 140.384 99.1087 140.885 99.1087 141.856V144.177H97.7799ZM103.101 144.33C102.151 144.33 101.466 143.788 101.466 142.848C101.466 142.01 101.998 141.498 103.153 141.274L104.573 141.018V140.855C104.573 140.333 104.359 139.975 103.735 139.975C103.204 139.975 102.897 140.251 102.825 140.63H101.538C101.762 139.72 102.57 139.076 103.837 139.076C105.166 139.076 105.861 139.689 105.861 140.793V142.889C105.861 143.205 105.984 143.338 106.239 143.338C106.321 143.338 106.383 143.328 106.475 143.287V144.156C106.26 144.238 106.045 144.289 105.779 144.289C105.146 144.289 104.768 143.993 104.635 143.471C104.256 144.044 103.745 144.33 103.101 144.33ZM102.733 142.776C102.733 143.205 103.05 143.42 103.49 143.42C104.042 143.42 104.584 143.052 104.584 142.408V141.734L103.613 141.948C102.999 142.091 102.733 142.357 102.733 142.776ZM107.422 144.177V139.209H108.721V140.119C109.048 139.444 109.579 139.096 110.284 139.096C111.327 139.096 111.971 139.832 111.971 140.957V144.177H110.642V141.131C110.642 140.507 110.376 140.119 109.763 140.119C109.099 140.119 108.751 140.589 108.751 141.376V144.177H107.422ZM115.12 144.361C113.873 144.361 113.045 143.246 113.045 141.734C113.045 140.231 113.924 139.076 115.191 139.076C115.896 139.076 116.448 139.516 116.704 140.19V137.021H118.033V144.177H116.735V143.154C116.469 143.86 115.866 144.361 115.12 144.361ZM114.414 141.734C114.414 142.746 114.833 143.349 115.539 143.349C116.264 143.349 116.714 142.735 116.714 141.734C116.714 140.711 116.285 140.108 115.569 140.108C114.844 140.108 114.414 140.732 114.414 141.734ZM123.914 144.177L121.185 137.021H122.605L124.558 142.5L126.612 137.021H127.992L125.171 144.177H123.914ZM130.343 144.361C128.881 144.361 127.797 143.246 127.797 141.713C127.797 140.2 128.881 139.076 130.343 139.076C131.804 139.076 132.857 140.19 132.867 141.713C132.867 143.246 131.804 144.361 130.343 144.361ZM129.177 141.713C129.177 142.766 129.627 143.369 130.343 143.369C131.058 143.369 131.487 142.766 131.487 141.713C131.487 140.691 131.058 140.078 130.343 140.078C129.627 140.078 129.177 140.691 129.177 141.713ZM133.974 144.177V139.209H135.303V144.177H133.974ZM133.964 138.401V137.021H135.313V138.401H133.964ZM138.916 144.361C137.495 144.361 136.422 143.246 136.412 141.713C136.412 140.211 137.485 139.076 138.926 139.076C139.989 139.076 140.817 139.71 141.134 140.711C141.155 140.783 141.175 140.834 141.185 140.906L139.969 141.1C139.959 141.028 139.938 140.957 139.918 140.885C139.734 140.303 139.356 140.047 138.937 140.047C138.231 140.047 137.781 140.691 137.781 141.713C137.781 142.746 138.231 143.389 138.937 143.389C139.376 143.389 139.744 143.124 139.918 142.51C139.938 142.449 139.959 142.388 139.969 142.316L141.175 142.5C141.155 142.582 141.144 142.633 141.114 142.715C140.787 143.747 139.979 144.361 138.916 144.361ZM144.447 144.361C142.955 144.361 141.912 143.287 141.912 141.723C141.912 140.159 142.955 139.076 144.416 139.076C145.95 139.076 146.808 140.262 146.808 141.672V141.928H143.251C143.282 142.827 143.762 143.359 144.488 143.359C144.948 143.359 145.347 143.134 145.561 142.715C145.592 142.654 145.633 142.582 145.653 142.51L146.757 142.746C146.737 142.807 146.706 142.868 146.675 142.94C146.256 143.86 145.459 144.361 144.447 144.361ZM143.282 141.12H145.531C145.459 140.507 145.122 140.016 144.447 140.016C143.803 140.016 143.384 140.425 143.282 141.12Z" fill="#801A10"/>
<path d="M210.818 139.907L213.8 142.889L216.781 139.907" stroke="#FA4028" stroke-width="1.06474" stroke-linecap="square"/>
<rect x="9.7953" y="164.822" width="219.762" height="31.5163" stroke="#FA4028" stroke-width="0.851792"/>
<rect x="15.332" y="170.359" width="20.443" height="20.443" rx="10.2215" fill="#FFE8E2"/>
<g clip-path="url(#clip3_19475_88358)">
<path d="M25.5535 175.736V176.978M25.5535 183.562V185.549M22.4481 180.58H20.709M30.1497 180.58H29.4044M28.7619 183.789L28.4106 183.437M28.8649 177.309L28.1622 178.012M22.0364 184.098L23.4418 182.692M22.1393 177.206L23.1934 178.26" stroke="#FA4028" stroke-width="1.06474" stroke-linecap="square"/>
</g>
<path d="M49.7274 183.512C47.8058 183.512 46.4668 182.051 46.4668 179.832C46.4668 177.584 47.8262 176.051 49.7479 176.051C51.1789 176.051 52.293 176.807 52.7837 178.064C52.845 178.187 52.8757 178.32 52.9165 178.453L51.506 178.698C51.4855 178.575 51.4446 178.442 51.3935 178.33C51.0971 177.584 50.5758 177.175 49.7683 177.175C48.5826 177.175 47.9284 178.238 47.9284 179.792C47.9284 181.366 48.6031 182.388 49.7683 182.388C50.586 182.388 51.1482 181.907 51.3935 181.212C51.4446 181.09 51.4855 180.957 51.5162 180.824L52.8552 181.079C52.8245 181.243 52.7632 181.407 52.7019 181.56C52.1601 182.848 51.1482 183.512 49.7274 183.512ZM53.9892 183.359V178.391H55.2873V179.822C55.737 178.759 56.2992 178.361 57.1578 178.309V179.597C56.197 179.567 55.318 180.068 55.318 181.039V183.359H53.9892ZM60.1596 183.543C58.6672 183.543 57.6247 182.47 57.6247 180.906C57.6247 179.342 58.6672 178.258 60.1289 178.258C61.6621 178.258 62.5208 179.444 62.5208 180.855V181.11H58.9637C58.9943 182.01 59.4747 182.541 60.2005 182.541C60.6604 182.541 61.0591 182.316 61.2737 181.897C61.3044 181.836 61.3453 181.764 61.3657 181.693L62.4696 181.928C62.4492 181.989 62.4185 182.051 62.3879 182.122C61.9688 183.042 61.1715 183.543 60.1596 183.543ZM58.9943 180.303H61.2431C61.1715 179.689 60.8342 179.199 60.1596 179.199C59.5156 179.199 59.0966 179.608 58.9943 180.303ZM64.9605 183.512C64.0099 183.512 63.3251 182.97 63.3251 182.03C63.3251 181.192 63.8566 180.681 65.0116 180.456L66.4324 180.2V180.037C66.4324 179.516 66.2177 179.158 65.5942 179.158C65.0627 179.158 64.7561 179.434 64.6845 179.812H63.3966C63.6215 178.902 64.429 178.258 65.6964 178.258C67.0252 178.258 67.7203 178.872 67.7203 179.976V182.071C67.7203 182.388 67.843 182.521 68.0985 182.521C68.1803 182.521 68.2416 182.511 68.3336 182.47V183.338C68.1189 183.42 67.9043 183.471 67.6385 183.471C67.0048 183.471 66.6266 183.175 66.4937 182.654C66.1155 183.226 65.6045 183.512 64.9605 183.512ZM64.5925 181.959C64.5925 182.388 64.9094 182.602 65.3489 182.602C65.9009 182.602 66.4426 182.235 66.4426 181.591V180.916L65.4716 181.131C64.8583 181.274 64.5925 181.539 64.5925 181.959ZM71.1532 183.451C70.499 183.451 70.0391 183.257 69.804 182.868C69.6813 182.664 69.6098 182.398 69.6098 182.071V179.291H68.6796V178.391H69.6098V176.664H70.9386V178.391H72.1651V179.291H70.9386V181.734C70.9386 181.928 70.959 182.081 71.0306 182.183C71.1328 182.357 71.3168 182.419 71.5621 182.419C71.8176 182.419 72.0834 182.367 72.2469 182.286V183.257C71.8585 183.4 71.5621 183.451 71.1532 183.451ZM73.3042 183.359V178.391H74.633V183.359H73.3042ZM73.294 177.584V176.204H74.6432V177.584H73.294ZM76.0892 183.359V178.391H77.3873V179.301C77.7144 178.626 78.2459 178.279 78.9512 178.279C79.9938 178.279 80.6377 179.015 80.6377 180.139V183.359H79.3089V180.313C79.3089 179.689 79.0432 179.301 78.4299 179.301C77.7655 179.301 77.4179 179.771 77.4179 180.558V183.359H76.0892ZM84.0827 185.137C83.0503 185.137 82.1713 184.739 81.7624 184.238L82.4881 183.441C82.8254 183.88 83.3263 184.136 83.9703 184.136C84.8084 184.136 85.2888 183.717 85.2888 182.919V182.071C85.0128 182.776 84.4302 183.175 83.7352 183.175C82.5086 183.175 81.7113 182.204 81.7113 180.752C81.7113 179.362 82.5597 178.279 83.7863 178.279C84.512 178.279 85.0742 178.708 85.3093 179.403V178.391H86.5972V183.032C86.5972 184.391 85.4115 185.137 84.0827 185.137ZM83.0401 180.752C83.0401 181.591 83.4898 182.214 84.1542 182.214C84.8493 182.214 85.3093 181.621 85.3093 180.752C85.3093 179.843 84.8697 179.27 84.1747 179.27C83.5001 179.27 83.0401 179.884 83.0401 180.752ZM89.7006 183.359L92.532 176.204H93.9425L96.7125 183.359H95.2815L94.6478 181.56H91.7551L91.0907 183.359H89.7006ZM92.1129 180.579H94.3003L93.227 177.522L92.1129 180.579ZM99.1057 183.471C98.0631 183.471 97.4293 182.735 97.4293 181.611V178.391H98.7479V181.437C98.7479 182.061 99.0239 182.449 99.6372 182.449C100.302 182.449 100.649 181.979 100.649 181.192V178.391H101.978V183.359H100.68V182.439C100.353 183.124 99.8212 183.471 99.1057 183.471ZM105.178 183.543C103.931 183.543 103.103 182.429 103.103 180.916C103.103 179.413 103.982 178.258 105.249 178.258C105.954 178.258 106.506 178.698 106.762 179.373V176.204H108.091V183.359H106.793V182.337C106.527 183.042 105.924 183.543 105.178 183.543ZM104.472 180.916C104.472 181.928 104.891 182.531 105.597 182.531C106.322 182.531 106.772 181.918 106.772 180.916C106.772 179.894 106.343 179.291 105.627 179.291C104.902 179.291 104.472 179.914 104.472 180.916ZM109.539 183.359V178.391H110.867V183.359H109.539ZM109.528 177.584V176.204H110.878V177.584H109.528ZM114.521 183.543C113.029 183.543 111.986 182.47 111.986 180.906C111.986 179.342 113.029 178.258 114.491 178.258C116.024 178.258 116.882 179.444 116.882 180.855V181.11H113.325C113.356 182.01 113.836 182.541 114.562 182.541C115.022 182.541 115.421 182.316 115.635 181.897C115.666 181.836 115.707 181.764 115.727 181.693L116.831 181.928C116.811 181.989 116.78 182.051 116.749 182.122C116.33 183.042 115.533 183.543 114.521 183.543ZM113.356 180.303H115.605C115.533 179.689 115.196 179.199 114.521 179.199C113.877 179.199 113.458 179.608 113.356 180.303ZM117.993 183.359V178.391H119.291V179.301C119.619 178.626 120.15 178.279 120.855 178.279C121.898 178.279 122.542 179.015 122.542 180.139V183.359H121.213V180.313C121.213 179.689 120.947 179.301 120.334 179.301C119.67 179.301 119.322 179.771 119.322 180.558V183.359H117.993ZM126.099 183.543C124.678 183.543 123.605 182.429 123.595 180.896C123.595 179.393 124.668 178.258 126.109 178.258C127.173 178.258 128 178.892 128.317 179.894C128.338 179.965 128.358 180.016 128.368 180.088L127.152 180.282C127.142 180.211 127.121 180.139 127.101 180.068C126.917 179.485 126.539 179.229 126.12 179.229C125.414 179.229 124.965 179.873 124.965 180.896C124.965 181.928 125.414 182.572 126.12 182.572C126.559 182.572 126.927 182.306 127.101 181.693C127.121 181.631 127.142 181.57 127.152 181.499L128.358 181.683C128.338 181.764 128.328 181.815 128.297 181.897C127.97 182.93 127.162 183.543 126.099 183.543ZM131.63 183.543C130.138 183.543 129.095 182.47 129.095 180.906C129.095 179.342 130.138 178.258 131.6 178.258C133.133 178.258 133.991 179.444 133.991 180.855V181.11H130.434C130.465 182.01 130.945 182.541 131.671 182.541C132.131 182.541 132.53 182.316 132.744 181.897C132.775 181.836 132.816 181.764 132.836 181.693L133.94 181.928C133.92 181.989 133.889 182.051 133.859 182.122C133.439 183.042 132.642 183.543 131.63 183.543ZM130.465 180.303H132.714C132.642 179.689 132.305 179.199 131.63 179.199C130.986 179.199 130.567 179.608 130.465 180.303ZM137.075 183.543C135.992 183.543 135.164 183.124 134.724 182.388L134.601 182.143L135.654 181.754C135.685 181.815 135.716 181.877 135.757 181.938C136.033 182.357 136.533 182.633 137.085 182.633C137.627 182.633 137.985 182.388 137.985 181.999C137.985 181.642 137.719 181.55 137.126 181.417L136.431 181.274C135.348 181.049 134.918 180.568 134.918 179.812C134.918 178.892 135.777 178.258 136.993 178.258C137.862 178.258 138.598 178.596 139.068 179.178C139.119 179.26 139.181 179.352 139.232 179.444L138.23 179.832C138.199 179.771 138.159 179.71 138.097 179.648C137.821 179.352 137.423 179.168 137.004 179.168C136.452 179.168 136.124 179.413 136.124 179.74C136.124 180.016 136.298 180.16 136.779 180.241L137.637 180.384C138.578 180.548 139.293 180.906 139.293 181.867C139.293 182.899 138.343 183.543 137.075 183.543Z" fill="#801A10"/>
<path d="M210.818 179.09L213.8 182.071L216.781 179.09" stroke="#FA4028" stroke-width="1.06474" stroke-linecap="square"/>
<rect x="9.7953" y="204.005" width="219.762" height="31.5163" stroke="#FA4028" stroke-width="0.851792"/>
<rect x="15.332" y="209.541" width="20.443" height="20.443" rx="10.2215" fill="#FFE8E2"/>
<g clip-path="url(#clip4_19475_88358)">
<path d="M25.5535 214.918V216.16M25.5535 222.744V224.732M22.4481 219.763H20.709M30.1497 219.763H29.4044M28.7619 222.971L28.4106 222.62M28.8649 216.491L28.1622 217.194M22.0364 223.28L23.4418 221.875M22.1393 216.388L23.1934 217.442" stroke="#FA4028" stroke-width="1.06474" stroke-linecap="square"/>
</g>
<path d="M49.7274 222.695C47.8058 222.695 46.4668 221.233 46.4668 219.015C46.4668 216.766 47.8262 215.233 49.7479 215.233C51.1789 215.233 52.293 215.989 52.7837 217.247C52.845 217.369 52.8757 217.502 52.9165 217.635L51.506 217.88C51.4855 217.758 51.4446 217.625 51.3935 217.512C51.0971 216.766 50.5758 216.357 49.7683 216.357C48.5826 216.357 47.9284 217.42 47.9284 218.974C47.9284 220.548 48.6031 221.57 49.7683 221.57C50.586 221.57 51.1482 221.09 51.3935 220.395C51.4446 220.272 51.4855 220.139 51.5162 220.006L52.8552 220.262C52.8245 220.425 52.7632 220.589 52.7019 220.742C52.1601 222.03 51.1482 222.695 49.7274 222.695ZM53.9892 222.541V217.574H55.2873V219.005C55.737 217.942 56.2992 217.543 57.1578 217.492V218.78C56.197 218.749 55.318 219.25 55.318 220.221V222.541H53.9892ZM60.1596 222.725C58.6672 222.725 57.6247 221.652 57.6247 220.088C57.6247 218.524 58.6672 217.441 60.1289 217.441C61.6621 217.441 62.5208 218.626 62.5208 220.037V220.293H58.9637C58.9943 221.192 59.4747 221.724 60.2005 221.724C60.6604 221.724 61.0591 221.499 61.2737 221.08C61.3044 221.018 61.3453 220.947 61.3657 220.875L62.4696 221.11C62.4492 221.172 62.4185 221.233 62.3879 221.304C61.9688 222.224 61.1715 222.725 60.1596 222.725ZM58.9943 219.485H61.2431C61.1715 218.872 60.8342 218.381 60.1596 218.381C59.5156 218.381 59.0966 218.79 58.9943 219.485ZM64.9605 222.695C64.0099 222.695 63.3251 222.153 63.3251 221.212C63.3251 220.374 63.8566 219.863 65.0116 219.638L66.4324 219.383V219.219C66.4324 218.698 66.2177 218.34 65.5942 218.34C65.0627 218.34 64.7561 218.616 64.6845 218.994H63.3966C63.6215 218.085 64.429 217.441 65.6964 217.441C67.0252 217.441 67.7203 218.054 67.7203 219.158V221.253C67.7203 221.57 67.843 221.703 68.0985 221.703C68.1803 221.703 68.2416 221.693 68.3336 221.652V222.521C68.1189 222.603 67.9043 222.654 67.6385 222.654C67.0048 222.654 66.6266 222.357 66.4937 221.836C66.1155 222.408 65.6045 222.695 64.9605 222.695ZM64.5925 221.141C64.5925 221.57 64.9094 221.785 65.3489 221.785C65.9009 221.785 66.4426 221.417 66.4426 220.773V220.098L65.4716 220.313C64.8583 220.456 64.5925 220.722 64.5925 221.141ZM71.1532 222.633C70.499 222.633 70.0391 222.439 69.804 222.051C69.6813 221.846 69.6098 221.58 69.6098 221.253V218.473H68.6796V217.574H69.6098V215.846H70.9386V217.574H72.1651V218.473H70.9386V220.916C70.9386 221.11 70.959 221.264 71.0306 221.366C71.1328 221.54 71.3168 221.601 71.5621 221.601C71.8176 221.601 72.0834 221.55 72.2469 221.468V222.439C71.8585 222.582 71.5621 222.633 71.1532 222.633ZM73.3042 222.541V217.574H74.633V222.541H73.3042ZM73.294 216.766V215.386H74.6432V216.766H73.294ZM76.0892 222.541V217.574H77.3873V218.483C77.7144 217.809 78.2459 217.461 78.9512 217.461C79.9938 217.461 80.6377 218.197 80.6377 219.321V222.541H79.3089V219.495C79.3089 218.872 79.0432 218.483 78.4299 218.483C77.7655 218.483 77.4179 218.954 77.4179 219.741V222.541H76.0892ZM84.0827 224.32C83.0503 224.32 82.1713 223.921 81.7624 223.42L82.4881 222.623C82.8254 223.063 83.3263 223.318 83.9703 223.318C84.8084 223.318 85.2888 222.899 85.2888 222.102V221.253C85.0128 221.959 84.4302 222.357 83.7352 222.357C82.5086 222.357 81.7113 221.386 81.7113 219.935C81.7113 218.545 82.5597 217.461 83.7863 217.461C84.512 217.461 85.0742 217.89 85.3093 218.586V217.574H86.5972V222.214C86.5972 223.574 85.4115 224.32 84.0827 224.32ZM83.0401 219.935C83.0401 220.773 83.4898 221.396 84.1542 221.396C84.8493 221.396 85.3093 220.804 85.3093 219.935C85.3093 219.025 84.8697 218.453 84.1747 218.453C83.5001 218.453 83.0401 219.066 83.0401 219.935ZM90.7455 222.541V215.386H92.0947V218.657L95.3043 215.386H96.8682L94.1697 218.105L97.1135 222.541H95.4576L93.1271 218.923L92.0947 219.965V222.541H90.7455ZM97.7999 222.541V217.574H99.098V218.483C99.4251 217.809 99.9566 217.461 100.662 217.461C101.704 217.461 102.348 218.197 102.348 219.321V222.541H101.02V219.495C101.02 218.872 100.754 218.483 100.141 218.483C99.4762 218.483 99.1287 218.954 99.1287 219.741V222.541H97.7999ZM105.947 222.725C104.485 222.725 103.402 221.611 103.402 220.078C103.402 218.565 104.485 217.441 105.947 217.441C107.408 217.441 108.461 218.555 108.471 220.078C108.471 221.611 107.408 222.725 105.947 222.725ZM104.781 220.078C104.781 221.131 105.231 221.734 105.947 221.734C106.662 221.734 107.092 221.131 107.092 220.078C107.092 219.056 106.662 218.442 105.947 218.442C105.231 218.442 104.781 219.056 104.781 220.078ZM110.51 222.541L108.997 217.574H110.326L111.185 220.906L112.135 217.574H113.321L114.302 220.936L115.243 217.574H116.52L114.967 222.541H113.761L112.718 219.066L111.686 222.541H110.51ZM117.434 222.541V215.386H118.763V222.541H117.434ZM122.417 222.725C120.925 222.725 119.882 221.652 119.882 220.088C119.882 218.524 120.925 217.441 122.386 217.441C123.919 217.441 124.778 218.626 124.778 220.037V220.293H121.221C121.252 221.192 121.732 221.724 122.458 221.724C122.918 221.724 123.316 221.499 123.531 221.08C123.562 221.018 123.603 220.947 123.623 220.875L124.727 221.11C124.707 221.172 124.676 221.233 124.645 221.304C124.226 222.224 123.429 222.725 122.417 222.725ZM121.252 219.485H123.5C123.429 218.872 123.092 218.381 122.417 218.381C121.773 218.381 121.354 218.79 121.252 219.485ZM127.637 222.725C126.39 222.725 125.562 221.611 125.562 220.098C125.562 218.596 126.441 217.441 127.708 217.441C128.414 217.441 128.966 217.88 129.221 218.555V215.386H130.55V222.541H129.252V221.519C128.986 222.224 128.383 222.725 127.637 222.725ZM126.932 220.098C126.932 221.11 127.351 221.713 128.056 221.713C128.782 221.713 129.231 221.1 129.231 220.098C129.231 219.076 128.802 218.473 128.087 218.473C127.361 218.473 126.932 219.097 126.932 220.098ZM134.042 224.32C133.01 224.32 132.131 223.921 131.722 223.42L132.448 222.623C132.785 223.063 133.286 223.318 133.93 223.318C134.768 223.318 135.248 222.899 135.248 222.102V221.253C134.972 221.959 134.39 222.357 133.695 222.357C132.468 222.357 131.671 221.386 131.671 219.935C131.671 218.545 132.519 217.461 133.746 217.461C134.472 217.461 135.034 217.89 135.269 218.586V217.574H136.557V222.214C136.557 223.574 135.371 224.32 134.042 224.32ZM133 219.935C133 220.773 133.449 221.396 134.114 221.396C134.809 221.396 135.269 220.804 135.269 219.935C135.269 219.025 134.829 218.453 134.134 218.453C133.46 218.453 133 219.066 133 219.935ZM140.195 222.725C138.702 222.725 137.66 221.652 137.66 220.088C137.66 218.524 138.702 217.441 140.164 217.441C141.697 217.441 142.556 218.626 142.556 220.037V220.293H138.999C139.029 221.192 139.51 221.724 140.236 221.724C140.696 221.724 141.094 221.499 141.309 221.08C141.34 221.018 141.38 220.947 141.401 220.875L142.505 221.11C142.484 221.172 142.454 221.233 142.423 221.304C142.004 222.224 141.207 222.725 140.195 222.725ZM139.029 219.485H141.278C141.207 218.872 140.869 218.381 140.195 218.381C139.551 218.381 139.132 218.79 139.029 219.485ZM146.375 222.541V215.386H149.38C150.974 215.386 151.946 216.081 151.946 217.216C151.946 218.003 151.404 218.565 150.545 218.81C151.7 218.974 152.252 219.587 152.252 220.517C152.252 221.713 151.22 222.541 149.574 222.541H146.375ZM147.724 221.488H149.431C150.279 221.488 150.821 221.11 150.821 220.395C150.821 219.72 150.412 219.311 149.451 219.311H147.724V221.488ZM147.724 218.32H149.339C150.187 218.32 150.607 217.931 150.607 217.359C150.607 216.766 150.208 216.439 149.349 216.439H147.724V218.32ZM154.748 222.695C153.797 222.695 153.113 222.153 153.113 221.212C153.113 220.374 153.644 219.863 154.799 219.638L156.22 219.383V219.219C156.22 218.698 156.005 218.34 155.382 218.34C154.85 218.34 154.544 218.616 154.472 218.994H153.184C153.409 218.085 154.216 217.441 155.484 217.441C156.813 217.441 157.508 218.054 157.508 219.158V221.253C157.508 221.57 157.63 221.703 157.886 221.703C157.968 221.703 158.029 221.693 158.121 221.652V222.521C157.906 222.603 157.692 222.654 157.426 222.654C156.792 222.654 156.414 222.357 156.281 221.836C155.903 222.408 155.392 222.695 154.748 222.695ZM154.38 221.141C154.38 221.57 154.697 221.785 155.136 221.785C155.688 221.785 156.23 221.417 156.23 220.773V220.098L155.259 220.313C154.646 220.456 154.38 220.722 154.38 221.141ZM161.042 222.725C159.958 222.725 159.13 222.306 158.691 221.57L158.568 221.325L159.621 220.936C159.652 220.998 159.682 221.059 159.723 221.12C159.999 221.54 160.5 221.816 161.052 221.816C161.594 221.816 161.951 221.57 161.951 221.182C161.951 220.824 161.686 220.732 161.093 220.599L160.398 220.456C159.314 220.231 158.885 219.751 158.885 218.994C158.885 218.074 159.744 217.441 160.96 217.441C161.829 217.441 162.565 217.778 163.035 218.361C163.086 218.442 163.147 218.534 163.198 218.626L162.197 219.015C162.166 218.954 162.125 218.892 162.064 218.831C161.788 218.534 161.389 218.35 160.97 218.35C160.418 218.35 160.091 218.596 160.091 218.923C160.091 219.199 160.265 219.342 160.745 219.424L161.604 219.567C162.544 219.73 163.26 220.088 163.26 221.049C163.26 222.081 162.309 222.725 161.042 222.725ZM166.547 222.725C165.055 222.725 164.012 221.652 164.012 220.088C164.012 218.524 165.055 217.441 166.516 217.441C168.05 217.441 168.908 218.626 168.908 220.037V220.293H165.351C165.382 221.192 165.862 221.724 166.588 221.724C167.048 221.724 167.447 221.499 167.661 221.08C167.692 221.018 167.733 220.947 167.753 220.875L168.857 221.11C168.837 221.172 168.806 221.233 168.775 221.304C168.356 222.224 167.559 222.725 166.547 222.725ZM165.382 219.485H167.631C167.559 218.872 167.222 218.381 166.547 218.381C165.903 218.381 165.484 218.79 165.382 219.485Z" fill="#801A10"/>
<path d="M210.818 218.272L213.8 221.253L216.781 218.272" stroke="#FA4028" stroke-width="1.06474" stroke-linecap="square"/>
</g>
<rect x="0.425896" y="0.425896" width="238.148" height="248.148" stroke="#FA4028" stroke-width="0.851792"/>
<defs>
<clipPath id="clip0_19475_88358">
<rect width="239" height="249" fill="white"/>
</clipPath>
<clipPath id="clip1_19475_88358">
<rect width="11.9251" height="11.9251" fill="white" transform="translate(19.5908 96.2532)"/>
</clipPath>
<clipPath id="clip2_19475_88358">
<rect width="11.9251" height="11.9251" fill="white" transform="translate(19.5908 135.436)"/>
</clipPath>
<clipPath id="clip3_19475_88358">
<rect width="11.9251" height="11.9251" fill="white" transform="translate(19.5908 174.618)"/>
</clipPath>
<clipPath id="clip4_19475_88358">
<rect width="11.9251" height="11.9251" fill="white" transform="translate(19.5908 213.8)"/>
</clipPath>
</defs>
</svg>
