<svg width="275" height="100" viewBox="0 0 275 100" fill="none" xmlns="http://www.w3.org/2000/svg">
<path d="M25.6205 78.1216C25.6205 83.5282 24.9174 87.8226 23.5112 91.005C22.1049 94.1873 20.2357 96.4629 17.9035 97.8316C15.5712 99.2004 13.1018 99.8848 10.4951 99.8848C8.36867 99.8848 6.51659 99.5426 4.93889 98.8582C3.36119 98.1738 2.14361 97.2328 1.28617 96.0351C0.428723 94.8375 0 93.4516 0 91.8776C0 90.3035 0.445872 89.1572 1.33762 88.2332C2.22936 87.3093 3.46408 86.8474 5.04178 86.8474C6.3451 86.8474 7.39118 87.1725 8.18003 87.8226C8.96888 88.4728 9.67199 89.5507 10.2893 91.0563C11.0439 92.4251 11.6613 93.4003 12.1414 93.982C12.6216 94.5637 13.2047 94.8546 13.8906 94.8546C14.9196 94.8546 15.6913 94.4611 16.2057 93.674C16.7202 92.887 16.9774 91.8433 16.9774 90.543C16.9774 89.1743 16.7545 87.8568 16.3086 86.5907C15.8627 85.3247 15.2968 83.8704 14.6109 82.2278C13.9249 80.5853 13.359 78.6349 12.9131 76.3764C12.4673 74.118 12.2443 71.3805 12.2443 68.1639V37.9829C12.2443 35.656 12.1414 33.928 11.9356 32.7987C11.7299 31.6695 11.2497 31.0023 10.4951 30.7969C9.74058 30.5916 8.50586 30.7627 6.79097 31.3102V28.3332L25.6205 20.4286V78.1216ZM24.4886 13.294C25.8606 11.8226 26.5465 9.9919 26.5465 7.80189C26.5465 5.61189 25.8606 3.76407 24.4886 2.25844C23.1167 0.752814 21.2647 0 18.9324 0C16.6001 0 14.6966 0.752814 13.2218 2.25844C11.747 3.76407 11.0096 5.61189 11.0096 7.80189C11.0096 9.9919 11.747 11.8226 13.2218 13.294C14.6966 14.7654 16.6001 15.5011 18.9324 15.5011C21.2647 15.5011 23.1167 14.7654 24.4886 13.294Z" fill="#FA4028"/>
<path d="M46.1633 80.1747C43.2823 80.1747 40.7614 79.5759 38.6007 78.3782C36.4399 77.1806 34.6907 75.4696 33.3531 73.2454C32.0155 71.0212 31.3467 68.4034 31.3467 65.3922C31.3467 62.1072 31.8954 59.3525 32.993 57.1283C34.0905 54.9041 35.7025 53.0392 37.829 51.5335C39.9554 50.0279 42.5278 48.796 45.546 47.8379C47.4667 47.1535 49.3359 46.5205 51.1537 45.9388C52.9715 45.357 54.6349 44.6213 56.144 43.7317C57.9961 42.7051 59.2651 41.4903 59.9511 40.0873C60.637 38.6844 60.98 36.9221 60.98 34.8005C60.98 31.7893 60.3455 29.4624 59.0765 27.8199C57.8075 26.1774 55.9039 25.3561 53.3659 25.3561C51.4452 25.3561 49.9704 25.7668 48.9415 26.588C47.9125 27.4093 47.1923 28.5727 46.7807 30.0783C46.3691 31.584 45.9576 33.2607 45.546 35.1085C45.3402 36.9563 44.7914 38.4448 43.8997 39.5741C43.0079 40.7033 41.4645 41.2679 39.2695 41.2679C37.2802 41.2679 35.7368 40.6691 34.6393 39.4714C33.5417 38.2737 32.993 36.751 32.993 34.9032C32.993 32.3026 33.8847 29.9244 35.6682 27.7686C37.4517 25.6128 39.9554 23.8847 43.1794 22.5844C46.4034 21.2841 50.1762 20.6339 54.4977 20.6339C58.2705 20.6339 61.5802 21.2328 64.4269 22.4304C67.2736 23.6281 69.503 25.5101 71.115 28.0765C72.727 30.6429 73.533 33.9451 73.533 37.9829V68.1639C73.533 69.4642 73.7559 70.4394 74.2018 71.0896C74.6477 71.7398 75.3508 72.0648 76.3111 72.0648C77.0657 72.0648 77.7345 71.8253 78.3176 71.3462C78.9006 70.8672 79.4322 70.3197 79.9124 69.7037L81.6616 71.6542C81.1128 72.7492 80.3926 73.9469 79.5008 75.2472C78.6091 76.5475 77.3744 77.6596 75.7967 78.5835C74.219 79.5074 72.2983 79.9694 70.0346 79.9694C67.771 79.9694 66.0218 79.5245 64.5813 78.6349C63.1408 77.7452 62.0775 76.5304 61.3916 74.9906C60.7056 73.4507 60.3626 71.7569 60.3626 69.9091V45.6821C60.0197 46.0243 59.6252 46.4692 59.1794 47.0167C58.7335 47.5642 58.099 48.1117 57.2758 48.6592C56.4527 49.1382 55.7324 49.566 55.1151 49.9424C54.4977 50.3188 53.8461 50.6781 53.1601 51.0203C52.4741 51.3624 51.5824 51.8757 50.4849 52.5601C49.1815 53.3129 48.0497 54.1513 47.0894 55.0752C46.129 55.9991 45.4259 57.0599 44.9801 58.2575C44.5342 59.4552 44.3113 60.8753 44.3113 62.5178C44.3113 65.6659 45.0658 68.0099 46.5749 69.5498C48.084 71.0896 49.8675 71.8595 51.9254 71.8595C53.9832 71.8595 55.801 71.2436 57.1729 70.0117C58.5449 68.7798 59.7796 67.2742 60.8771 65.4948L61.3916 69.9091C60.637 71.4147 59.5909 72.9545 58.2533 74.5286C56.9157 76.1027 55.2694 77.4372 53.3144 78.5322C51.3595 79.6272 48.9758 80.1747 46.1633 80.1747Z" fill="#FA4028"/>
<path d="M122.32 98.9607V95.9837C123.898 95.9837 125.098 95.6928 125.921 95.1111C126.744 94.5294 127.156 92.9382 127.156 90.3376V37.9828C127.156 35.6559 127.053 33.9278 126.847 32.7986C126.641 31.6694 126.178 31.0021 125.458 30.7968C124.738 30.5915 123.52 30.7626 121.805 31.3101V28.333L140.429 20.4285V90.3376C140.429 92.1169 140.618 93.4001 140.995 94.1872C141.372 94.9742 142.024 95.4704 142.95 95.6757C143.876 95.881 145.162 95.9837 146.809 95.9837V98.9607H122.32ZM143.722 78.9427C141.87 78.3267 140.206 77.4371 138.731 76.2736C137.257 75.1102 135.868 73.8783 134.564 72.578L140.429 60.6698C140.429 63.5442 140.892 66.0764 141.818 68.2664C142.744 70.4564 144.065 72.1845 145.78 73.4506C147.494 74.7167 149.449 75.3497 151.645 75.3497C153.565 75.3497 155.349 74.7338 156.995 73.5019C158.641 72.27 159.945 70.1827 160.905 67.2398C161.865 64.297 162.345 60.4645 162.345 55.7423C162.345 50.1304 161.9 45.3569 161.008 41.4217C160.116 37.4866 158.847 34.4753 157.201 32.388C155.554 30.3006 153.428 29.257 150.821 29.257C149.381 29.257 147.992 29.5649 146.654 30.1809C145.317 30.7968 144.03 31.7207 142.796 32.9526C141.561 34.1845 140.498 35.6901 139.606 37.4695L138.268 34.1845C139.366 31.7891 140.772 29.5649 142.487 27.5118C144.202 25.4587 146.243 23.7991 148.609 22.533C150.976 21.2669 153.668 20.6338 156.686 20.6338C160.39 20.6338 163.717 21.6946 166.667 23.8162C169.617 25.9377 171.915 29.0174 173.561 33.0552C175.207 37.0931 176.03 42.0548 176.03 47.9404C176.03 54.7842 174.898 60.5501 172.635 65.2381C170.371 69.926 167.301 73.5361 163.426 76.0683C159.55 78.6005 155.109 79.8666 150.101 79.8666C147.7 79.8666 145.574 79.5586 143.722 78.9427Z" fill="#FA4028"/>
<path d="M203.83 79.8667C198.617 79.8667 194.21 78.6006 190.608 76.0684C187.007 73.5362 184.246 70.1143 182.325 65.8027C180.405 61.4912 179.444 56.6663 179.444 51.3282C179.444 47.0166 180.045 43.013 181.245 39.3174C182.446 35.6217 184.16 32.3881 186.39 29.6163C188.619 26.8446 191.226 24.6888 194.21 23.149C197.194 21.6091 200.538 20.8392 204.242 20.8392C208.563 20.8392 212.267 21.8315 215.354 23.8162C218.441 25.8009 220.859 28.6753 222.608 32.4394C224.357 36.2035 225.232 40.823 225.232 46.298H187.676V41.6785H211.753C211.479 36.2035 210.518 32.1143 208.872 29.411C207.226 26.7077 205.065 25.3561 202.39 25.3561C200.812 25.3561 199.269 25.9207 197.759 27.0499C196.25 28.1791 194.999 30.0783 194.004 32.7474C193.009 35.4164 192.512 39.0436 192.512 43.6289C192.512 49.0355 193.146 53.6893 194.415 57.5902C195.684 61.4912 197.554 64.4853 200.023 66.5727C202.493 68.66 205.476 69.7037 208.975 69.7037C212.199 69.7037 214.908 68.814 217.103 67.0346C219.299 65.2552 221.048 62.6546 222.351 59.2327L225.541 60.4646C224.786 64.0234 223.5 67.2742 221.682 70.217C219.864 73.1598 217.498 75.5038 214.583 77.2489C211.667 78.9941 208.083 79.8667 203.83 79.8667Z" fill="#FA4028"/>
<path d="M252.217 78.9427H227.728V75.863C229.1 75.863 230.198 75.5893 231.021 75.0418C231.844 74.4943 232.256 72.9202 232.256 70.3196V38.2907C232.256 35.8954 232.187 34.1161 232.05 32.9526C231.913 31.7892 231.467 31.1048 230.712 30.8995C229.958 30.6942 228.757 30.8653 227.111 31.4128V28.3331L245.735 20.3259V70.3196C245.735 72.1674 245.906 73.4677 246.249 74.2205C246.592 74.9733 247.244 75.4353 248.204 75.6064C249.165 75.7775 250.502 75.863 252.217 75.863V78.9427ZM252.114 31.3101C251.291 31.3101 250.468 31.755 249.645 32.6446C248.822 33.5343 247.998 34.7149 247.175 36.1863C246.352 37.6577 245.563 39.2831 244.809 41.0625L243.471 36.9562C244.226 35.04 245.1 33.1408 246.095 31.2588C247.09 29.3767 248.307 27.6487 249.748 26.0746C251.188 24.5006 252.663 23.2002 254.172 22.1737C255.681 21.1471 257.327 20.6338 259.111 20.6338C261.512 20.6338 263.381 21.3353 264.719 22.7383C266.056 24.1413 266.725 26.1431 266.725 28.7437C266.725 31.0706 266.176 32.9013 265.079 34.2358C263.981 35.5704 262.472 36.2376 260.551 36.2376C259.317 36.2376 258.322 35.9981 257.568 35.519C256.813 35.04 256.161 34.4582 255.613 33.7739C255.064 33.0895 254.515 32.5078 253.966 32.0287C253.418 31.5496 252.8 31.3101 252.114 31.3101Z" fill="#FA4028"/>
<path d="M110.764 67.7023C110.764 66.4704 110.524 65.307 110.043 64.212C109.563 63.117 108.74 62.0049 107.574 60.8756C106.408 59.7464 104.796 58.6001 102.738 57.4366L94.7123 52.5091C91.694 50.5929 89.2246 48.3344 87.3039 45.7338C85.3832 43.1332 84.4229 39.9166 84.4229 36.0841C84.4229 33.0044 85.1603 30.3353 86.6351 28.0769C88.1099 25.8184 90.1163 24.0904 92.6544 22.8927C95.1924 21.6951 98.0734 21.0963 101.297 21.0963C103.492 21.0963 105.31 21.3358 106.751 21.8148C108.191 22.2939 109.409 22.773 110.404 23.252C111.398 23.7311 112.17 23.9706 112.719 23.9706C113.336 23.9706 113.799 23.7824 114.108 23.406C114.416 23.0296 114.605 22.5334 114.674 21.9175H118.481V37.8293H114.262C113.85 35.4339 113.062 33.3466 111.895 31.5672C110.729 29.7878 109.22 28.4362 107.368 27.5123C105.516 26.5884 103.355 26.1264 100.886 26.1264C99.171 26.1264 97.7476 26.6226 96.6158 27.6149C95.484 28.6073 94.918 29.9931 94.918 31.7725C94.918 33.8257 95.5354 35.5195 96.7701 36.854C98.0048 38.1886 99.9255 39.6771 102.532 41.3196L110.558 46.2471C112.89 47.6158 114.931 49.1728 116.68 50.918C118.429 52.6631 119.784 54.5794 120.744 56.6667C121.705 58.7541 122.185 61.0638 122.185 63.596C122.185 66.4704 121.43 69.1395 119.921 71.6032C118.412 74.067 116.234 76.0346 113.387 77.506C110.541 78.9774 107.162 79.7131 103.252 79.7131C100.714 79.7131 98.5365 79.4051 96.7187 78.7892C94.9009 78.1733 93.4432 77.5402 92.3457 76.89C91.2482 76.2399 90.425 75.9148 89.8763 75.9148C89.0531 75.9148 88.4872 76.2741 88.1785 76.9927C87.8698 77.7113 87.6812 78.3786 87.6126 78.9945H83.8055V60.2084H88.0242C88.23 63.2196 89.036 65.786 90.4422 67.9076C91.8484 70.0292 93.5976 71.6888 95.6897 72.8864C97.7819 74.0841 100.063 74.6829 102.532 74.6829C105.207 74.6829 107.248 74.1183 108.654 72.9891C110.061 71.8599 110.764 70.0976 110.764 67.7023Z" fill="#FA4028"/>
</svg>
